<svg width="111" height="147" viewBox="0 0 111 147" fill="none" xmlns="http://www.w3.org/2000/svg">
<path d="M0 20.0614C0 8.98182 8.62066 0 19.2548 0H90.8826C101.517 0 110.137 8.98182 110.137 20.0615V126.788C110.137 137.868 101.517 146.85 90.8826 146.85H19.2548C8.62066 146.85 0 137.868 0 126.788V20.0614Z" fill="black"/>
<path d="M76.7494 112.218L81.1544 104.582L53.4787 88.6016L49.0738 96.2379C52.1363 98.0063 53.1893 101.921 51.4209 104.984L49.2988 108.649C47.5304 111.712 43.6158 112.765 40.5532 110.996L36.1483 118.632L63.8239 134.612L68.2289 126.976C65.1663 125.208 64.1133 121.285 65.8817 118.222L67.9958 114.557C69.7642 111.494 73.6869 110.441 76.7494 112.21V112.218Z" fill="#DAFD60"/>
<path d="M82.8028 36.0729C87.1916 28.4768 84.5872 18.7585 76.9911 14.3697C69.395 9.98077 59.6767 12.5852 55.2879 20.1813L50.3443 28.742C54.693 31.25 55.8103 37.0295 52.7076 40.9763L25.6987 71.4296L53.2136 87.3132L66.0752 48.701C67.9481 44.0388 73.5106 42.1177 77.8592 44.6337L82.8028 36.0729Z" fill="white"/>
</svg>
